<svg xmlns="http://www.w3.org/2000/svg" viewBox="0 0 16 16" shape-rendering="crispEdges">
  <rect width="16" height="16" fill="none"/>
  <!-- puff fill -->
  <rect x="2" y="6" width="12" height="7" fill="#CFCFCF"/>
  <rect x="3" y="5" width="10" height="1" fill="#CFCFCF"/>
  <rect x="3" y="13" width="10" height="1" fill="#CFCFCF"/>
  <!-- outline puff -->
  <rect x="3" y="4" width="10" height="1" fill="#2B2B2B"/>
  <rect x="2" y="5" width="1" height="8" fill="#2B2B2B"/>
  <rect x="13" y="5" width="1" height="8" fill="#2B2B2B"/>
  <rect x="3" y="13" width="10" height="1" fill="#2B2B2B"/>
  <!-- spiky ears -->
  <rect x="4" y="3" width="1" height="1" fill="#2B2B2B"/>
  <rect x="5" y="4" width="1" height="1" fill="#2B2B2B"/>
  <rect x="11" y="3" width="1" height="1" fill="#2B2B2B"/>
  <rect x="10" y="4" width="1" height="1" fill="#2B2B2B"/>
  <!-- face -->
  <rect x="5" y="7" width="2" height="2" fill="#2B2B2B"/>
  <rect x="9" y="7" width="2" height="2" fill="#2B2B2B"/>
  <rect x="5" y="8" width="1" height="1" fill="#FFFFFF"/>
  <rect x="10" y="8" width="1" height="1" fill="#FFFFFF"/>
  <rect x="7" y="9" width="2" height="1" fill="#2B2B2B"/>
  <rect x="6" y="10" width="4" height="1" fill="#2B2B2B"/>
  <!-- puff tufts -->
  <rect x="1" y="8" width="1" height="1" fill="#2B2B2B"/>
  <rect x="14" y="8" width="1" height="1" fill="#2B2B2B"/>
  <rect x="1" y="10" width="1" height="1" fill="#2B2B2B"/>
  <rect x="14" y="10" width="1" height="1" fill="#2B2B2B"/>
</svg>