<svg xmlns="http://www.w3.org/2000/svg" viewBox="0 0 16 16" shape-rendering="crispEdges">
  <rect width="16" height="16" fill="none"/>
  <!-- body fill -->
  <rect x="3" y="7" width="10" height="4" fill="#CFCFCF"/>
  <rect x="4" y="6" width="8" height="1" fill="#CFCFCF"/>
  <rect x="4" y="11" width="8" height="1" fill="#CFCFCF"/>
  <!-- outline -->
  <rect x="4" y="5" width="8" height="1" fill="#2B2B2B"/>
  <rect x="3" y="6" width="1" height="1" fill="#2B2B2B"/>
  <rect x="12" y="6" width="1" height="1" fill="#2B2B2B"/>
  <rect x="2" y="7" width="1" height="4" fill="#2B2B2B"/>
  <rect x="13" y="7" width="1" height="4" fill="#2B2B2B"/>
  <rect x="3" y="11" width="10" height="1" fill="#2B2B2B"/>
  <rect x="4" y="12" width="8" height="1" fill="#2B2B2B"/>
  <!-- ears -->
  <rect x="5" y="4" width="1" height="1" fill="#2B2B2B"/>
  <rect x="10" y="4" width="1" height="1" fill="#2B2B2B"/>
  <rect x="6" y="5" width="1" height="1" fill="#CFCFCF"/>
  <rect x="9" y="5" width="1" height="1" fill="#CFCFCF"/>
  <!-- face -->
  <rect x="6" y="8" width="1" height="1" fill="#2B2B2B"/>
  <rect x="9" y="8" width="1" height="1" fill="#2B2B2B"/>
  <rect x="7" y="9" width="2" height="1" fill="#2B2B2B"/>
</svg>